<mxfile host="Electron" modified="2024-11-15T03:00:13.240Z" agent="Mozilla/5.0 (Windows NT 10.0; Win64; x64) AppleWebKit/537.36 (KHTML, like Gecko) draw.io/21.5.1 Chrome/112.0.5615.204 Electron/24.6.0 Safari/537.36" etag="4ylCk1gSnl5Zpkfbea72" version="21.5.1" type="device">
  <diagram name="Page-1" id="5Iuas-7Hw5sXaIkxMlDP">
    <mxGraphModel dx="1480" dy="3066" grid="1" gridSize="10" guides="1" tooltips="1" connect="1" arrows="1" fold="1" page="1" pageScale="1" pageWidth="850" pageHeight="1100" math="0" shadow="0">
      <root>
        <mxCell id="0" />
        <mxCell id="1" parent="0" />
        <mxCell id="j5CDYh8a87OP_Bmkf70g-1" value="User&lt;br&gt;" style="shape=umlActor;verticalLabelPosition=bottom;verticalAlign=top;html=1;outlineConnect=0;" parent="1" vertex="1">
          <mxGeometry x="40" y="260" width="30" height="60" as="geometry" />
        </mxCell>
        <mxCell id="j5CDYh8a87OP_Bmkf70g-2" value="Giỏ Hàng" style="ellipse;whiteSpace=wrap;html=1;" parent="1" vertex="1">
          <mxGeometry x="190" y="80" width="120" height="80" as="geometry" />
        </mxCell>
        <mxCell id="j5CDYh8a87OP_Bmkf70g-3" value="Đăng Ký" style="ellipse;whiteSpace=wrap;html=1;" parent="1" vertex="1">
          <mxGeometry x="110" y="430" width="120" height="80" as="geometry" />
        </mxCell>
        <mxCell id="j5CDYh8a87OP_Bmkf70g-4" value="Thanh Toán" style="ellipse;whiteSpace=wrap;html=1;" parent="1" vertex="1">
          <mxGeometry x="430" y="190" width="120" height="80" as="geometry" />
        </mxCell>
        <mxCell id="j5CDYh8a87OP_Bmkf70g-5" value="Thêm Sản Phẩm" style="ellipse;whiteSpace=wrap;html=1;" parent="1" vertex="1">
          <mxGeometry x="430" y="-40" width="120" height="80" as="geometry" />
        </mxCell>
        <mxCell id="j5CDYh8a87OP_Bmkf70g-6" value="Xóa Sản phẩm" style="ellipse;whiteSpace=wrap;html=1;" parent="1" vertex="1">
          <mxGeometry x="430" y="90" width="120" height="80" as="geometry" />
        </mxCell>
        <mxCell id="j5CDYh8a87OP_Bmkf70g-7" value="Sản Phẩm" style="ellipse;whiteSpace=wrap;html=1;" parent="1" vertex="1">
          <mxGeometry x="180" y="300" width="120" height="80" as="geometry" />
        </mxCell>
        <mxCell id="j5CDYh8a87OP_Bmkf70g-8" value="tìm kiếm&amp;nbsp;" style="ellipse;whiteSpace=wrap;html=1;" parent="1" vertex="1">
          <mxGeometry x="410" y="290" width="120" height="80" as="geometry" />
        </mxCell>
        <mxCell id="j5CDYh8a87OP_Bmkf70g-9" value="Chi Tiết" style="ellipse;whiteSpace=wrap;html=1;" parent="1" vertex="1">
          <mxGeometry x="380" y="400" width="120" height="80" as="geometry" />
        </mxCell>
        <mxCell id="j5CDYh8a87OP_Bmkf70g-10" value="Thêm Giỏ Hàng&amp;nbsp;" style="ellipse;whiteSpace=wrap;html=1;" parent="1" vertex="1">
          <mxGeometry x="330" y="500" width="120" height="80" as="geometry" />
        </mxCell>
        <mxCell id="j5CDYh8a87OP_Bmkf70g-11" value="" style="endArrow=classic;html=1;rounded=0;entryX=0;entryY=0.5;entryDx=0;entryDy=0;" parent="1" source="j5CDYh8a87OP_Bmkf70g-1" target="j5CDYh8a87OP_Bmkf70g-2" edge="1">
          <mxGeometry width="50" height="50" relative="1" as="geometry">
            <mxPoint x="80" y="290" as="sourcePoint" />
            <mxPoint x="130" y="240" as="targetPoint" />
          </mxGeometry>
        </mxCell>
        <mxCell id="j5CDYh8a87OP_Bmkf70g-12" value="" style="endArrow=classic;html=1;rounded=0;" parent="1" source="j5CDYh8a87OP_Bmkf70g-1" target="j5CDYh8a87OP_Bmkf70g-7" edge="1">
          <mxGeometry width="50" height="50" relative="1" as="geometry">
            <mxPoint x="110" y="340" as="sourcePoint" />
            <mxPoint x="160" y="290" as="targetPoint" />
          </mxGeometry>
        </mxCell>
        <mxCell id="j5CDYh8a87OP_Bmkf70g-13" value="" style="endArrow=classic;html=1;rounded=0;exitX=1;exitY=1;exitDx=0;exitDy=0;exitPerimeter=0;entryX=0.34;entryY=0.038;entryDx=0;entryDy=0;entryPerimeter=0;" parent="1" source="j5CDYh8a87OP_Bmkf70g-1" target="j5CDYh8a87OP_Bmkf70g-3" edge="1">
          <mxGeometry width="50" height="50" relative="1" as="geometry">
            <mxPoint x="90" y="350" as="sourcePoint" />
            <mxPoint x="220" y="560" as="targetPoint" />
          </mxGeometry>
        </mxCell>
        <mxCell id="j5CDYh8a87OP_Bmkf70g-14" value="Extends" style="endArrow=block;endSize=16;endFill=0;html=1;rounded=0;exitX=0.937;exitY=0.148;exitDx=0;exitDy=0;exitPerimeter=0;entryX=0.003;entryY=0.718;entryDx=0;entryDy=0;entryPerimeter=0;" parent="1" source="j5CDYh8a87OP_Bmkf70g-2" target="j5CDYh8a87OP_Bmkf70g-5" edge="1">
          <mxGeometry width="160" relative="1" as="geometry">
            <mxPoint x="330" y="70" as="sourcePoint" />
            <mxPoint x="490" y="70" as="targetPoint" />
          </mxGeometry>
        </mxCell>
        <mxCell id="j5CDYh8a87OP_Bmkf70g-15" value="Extends" style="endArrow=block;endSize=16;endFill=0;html=1;rounded=0;exitX=1;exitY=0.5;exitDx=0;exitDy=0;entryX=0.065;entryY=0.308;entryDx=0;entryDy=0;entryPerimeter=0;" parent="1" source="j5CDYh8a87OP_Bmkf70g-2" target="j5CDYh8a87OP_Bmkf70g-6" edge="1">
          <mxGeometry width="160" relative="1" as="geometry">
            <mxPoint x="270" y="220" as="sourcePoint" />
            <mxPoint x="430" y="220" as="targetPoint" />
          </mxGeometry>
        </mxCell>
        <mxCell id="j5CDYh8a87OP_Bmkf70g-16" value="Extends" style="endArrow=block;endSize=16;endFill=0;html=1;rounded=0;exitX=0.937;exitY=0.868;exitDx=0;exitDy=0;exitPerimeter=0;" parent="1" source="j5CDYh8a87OP_Bmkf70g-2" target="j5CDYh8a87OP_Bmkf70g-4" edge="1">
          <mxGeometry width="160" relative="1" as="geometry">
            <mxPoint x="230" y="270" as="sourcePoint" />
            <mxPoint x="390" y="270" as="targetPoint" />
          </mxGeometry>
        </mxCell>
        <mxCell id="j5CDYh8a87OP_Bmkf70g-17" value="Extends" style="endArrow=block;endSize=16;endFill=0;html=1;rounded=0;exitX=1;exitY=0.5;exitDx=0;exitDy=0;entryX=0;entryY=0.5;entryDx=0;entryDy=0;" parent="1" source="j5CDYh8a87OP_Bmkf70g-7" target="j5CDYh8a87OP_Bmkf70g-8" edge="1">
          <mxGeometry width="160" relative="1" as="geometry">
            <mxPoint x="330" y="370" as="sourcePoint" />
            <mxPoint x="490" y="370" as="targetPoint" />
          </mxGeometry>
        </mxCell>
        <mxCell id="j5CDYh8a87OP_Bmkf70g-18" value="Extends" style="endArrow=block;endSize=16;endFill=0;html=1;rounded=0;exitX=1;exitY=1;exitDx=0;exitDy=0;entryX=0.08;entryY=0.243;entryDx=0;entryDy=0;entryPerimeter=0;" parent="1" source="j5CDYh8a87OP_Bmkf70g-7" target="j5CDYh8a87OP_Bmkf70g-9" edge="1">
          <mxGeometry width="160" relative="1" as="geometry">
            <mxPoint x="300" y="410" as="sourcePoint" />
            <mxPoint x="460" y="410" as="targetPoint" />
          </mxGeometry>
        </mxCell>
        <mxCell id="j5CDYh8a87OP_Bmkf70g-19" value="Extends" style="endArrow=block;endSize=16;endFill=0;html=1;rounded=0;exitX=0.607;exitY=1.038;exitDx=0;exitDy=0;exitPerimeter=0;entryX=0;entryY=0;entryDx=0;entryDy=0;" parent="1" source="j5CDYh8a87OP_Bmkf70g-7" target="j5CDYh8a87OP_Bmkf70g-10" edge="1">
          <mxGeometry width="160" relative="1" as="geometry">
            <mxPoint x="260" y="440" as="sourcePoint" />
            <mxPoint x="420" y="440" as="targetPoint" />
          </mxGeometry>
        </mxCell>
        <mxCell id="j5CDYh8a87OP_Bmkf70g-20" value="Admin" style="shape=umlActor;verticalLabelPosition=bottom;verticalAlign=top;html=1;" parent="1" vertex="1">
          <mxGeometry x="305" y="1000" width="30" height="60" as="geometry" />
        </mxCell>
        <mxCell id="j5CDYh8a87OP_Bmkf70g-28" value="Quản Lý Sản Phẩm" style="ellipse;whiteSpace=wrap;html=1;" parent="1" vertex="1">
          <mxGeometry x="260" y="860" width="120" height="80" as="geometry" />
        </mxCell>
        <mxCell id="j5CDYh8a87OP_Bmkf70g-29" value="Thêm Sản Phẩm&amp;nbsp;" style="ellipse;whiteSpace=wrap;html=1;" parent="1" vertex="1">
          <mxGeometry x="40" y="860" width="120" height="80" as="geometry" />
        </mxCell>
        <mxCell id="j5CDYh8a87OP_Bmkf70g-30" value="Sửa Sản Phẩm" style="ellipse;whiteSpace=wrap;html=1;" parent="1" vertex="1">
          <mxGeometry x="260" y="690" width="120" height="80" as="geometry" />
        </mxCell>
        <mxCell id="j5CDYh8a87OP_Bmkf70g-31" value="Xóa Sản Phẩm" style="ellipse;whiteSpace=wrap;html=1;" parent="1" vertex="1">
          <mxGeometry x="460" y="860" width="120" height="80" as="geometry" />
        </mxCell>
        <mxCell id="j5CDYh8a87OP_Bmkf70g-32" value="Quản Lý User" style="ellipse;whiteSpace=wrap;html=1;" parent="1" vertex="1">
          <mxGeometry x="260" y="1140" width="120" height="80" as="geometry" />
        </mxCell>
        <mxCell id="j5CDYh8a87OP_Bmkf70g-33" value="T.khoản/M.Khẩu" style="ellipse;whiteSpace=wrap;html=1;" parent="1" vertex="1">
          <mxGeometry x="500" y="1140" width="120" height="80" as="geometry" />
        </mxCell>
        <mxCell id="j5CDYh8a87OP_Bmkf70g-34" value="Trạng Thái" style="ellipse;whiteSpace=wrap;html=1;" parent="1" vertex="1">
          <mxGeometry x="460" y="1290" width="120" height="80" as="geometry" />
        </mxCell>
        <mxCell id="j5CDYh8a87OP_Bmkf70g-35" value="Sửa User" style="ellipse;whiteSpace=wrap;html=1;" parent="1" vertex="1">
          <mxGeometry x="270" y="1340" width="120" height="80" as="geometry" />
        </mxCell>
        <mxCell id="j5CDYh8a87OP_Bmkf70g-36" value="Khóa User" style="ellipse;whiteSpace=wrap;html=1;" parent="1" vertex="1">
          <mxGeometry x="70" y="1300" width="120" height="80" as="geometry" />
        </mxCell>
        <mxCell id="j5CDYh8a87OP_Bmkf70g-37" value="Xóa User" style="ellipse;whiteSpace=wrap;html=1;" parent="1" vertex="1">
          <mxGeometry x="20" y="1150" width="120" height="80" as="geometry" />
        </mxCell>
        <mxCell id="j5CDYh8a87OP_Bmkf70g-38" value="" style="endArrow=classic;html=1;rounded=0;entryX=0.5;entryY=0;entryDx=0;entryDy=0;" parent="1" source="j5CDYh8a87OP_Bmkf70g-20" target="j5CDYh8a87OP_Bmkf70g-32" edge="1">
          <mxGeometry width="50" height="50" relative="1" as="geometry">
            <mxPoint x="320" y="1100" as="sourcePoint" />
            <mxPoint x="390" y="1070" as="targetPoint" />
          </mxGeometry>
        </mxCell>
        <mxCell id="j5CDYh8a87OP_Bmkf70g-39" value="&amp;lt;&amp;lt;include&amp;gt;&amp;gt;" style="endArrow=open;endSize=12;dashed=1;html=1;rounded=0;exitX=0;exitY=1;exitDx=0;exitDy=0;entryX=0.779;entryY=0.077;entryDx=0;entryDy=0;entryPerimeter=0;" parent="1" source="j5CDYh8a87OP_Bmkf70g-32" target="j5CDYh8a87OP_Bmkf70g-36" edge="1">
          <mxGeometry width="160" relative="1" as="geometry">
            <mxPoint x="230" y="1270" as="sourcePoint" />
            <mxPoint x="390" y="1270" as="targetPoint" />
          </mxGeometry>
        </mxCell>
        <mxCell id="j5CDYh8a87OP_Bmkf70g-40" value="&amp;lt;&amp;lt;include&amp;gt;&amp;gt;" style="endArrow=open;endSize=12;dashed=1;html=1;rounded=0;exitX=1;exitY=0.5;exitDx=0;exitDy=0;entryX=0;entryY=0.5;entryDx=0;entryDy=0;" parent="1" source="j5CDYh8a87OP_Bmkf70g-32" target="j5CDYh8a87OP_Bmkf70g-33" edge="1">
          <mxGeometry x="0.0082" width="160" relative="1" as="geometry">
            <mxPoint x="60" y="1090" as="sourcePoint" />
            <mxPoint x="220" y="1090" as="targetPoint" />
            <mxPoint as="offset" />
          </mxGeometry>
        </mxCell>
        <mxCell id="j5CDYh8a87OP_Bmkf70g-41" value="&amp;lt;&amp;lt;include&amp;gt;&amp;gt;" style="endArrow=open;endSize=12;dashed=1;html=1;rounded=0;exitX=0;exitY=0.5;exitDx=0;exitDy=0;" parent="1" source="j5CDYh8a87OP_Bmkf70g-32" target="j5CDYh8a87OP_Bmkf70g-37" edge="1">
          <mxGeometry width="160" relative="1" as="geometry">
            <mxPoint x="70" y="1100" as="sourcePoint" />
            <mxPoint x="230" y="1100" as="targetPoint" />
            <Array as="points" />
          </mxGeometry>
        </mxCell>
        <mxCell id="j5CDYh8a87OP_Bmkf70g-42" value="&amp;lt;&amp;lt;include&amp;gt;&amp;gt;" style="endArrow=open;endSize=12;dashed=1;html=1;rounded=0;exitX=1;exitY=1;exitDx=0;exitDy=0;entryX=0;entryY=0;entryDx=0;entryDy=0;" parent="1" source="j5CDYh8a87OP_Bmkf70g-32" target="j5CDYh8a87OP_Bmkf70g-34" edge="1">
          <mxGeometry width="160" relative="1" as="geometry">
            <mxPoint x="80" y="1110" as="sourcePoint" />
            <mxPoint x="240" y="1110" as="targetPoint" />
          </mxGeometry>
        </mxCell>
        <mxCell id="j5CDYh8a87OP_Bmkf70g-43" value="&amp;lt;&amp;lt;include&amp;gt;&amp;gt;" style="endArrow=open;endSize=12;dashed=1;html=1;rounded=0;exitX=0.5;exitY=1;exitDx=0;exitDy=0;entryX=0.438;entryY=0.042;entryDx=0;entryDy=0;entryPerimeter=0;" parent="1" source="j5CDYh8a87OP_Bmkf70g-32" target="j5CDYh8a87OP_Bmkf70g-35" edge="1">
          <mxGeometry width="160" relative="1" as="geometry">
            <mxPoint x="90" y="1120" as="sourcePoint" />
            <mxPoint x="250" y="1120" as="targetPoint" />
          </mxGeometry>
        </mxCell>
        <mxCell id="j5CDYh8a87OP_Bmkf70g-45" value="" style="endArrow=classic;html=1;rounded=0;exitX=0.5;exitY=0;exitDx=0;exitDy=0;exitPerimeter=0;" parent="1" source="j5CDYh8a87OP_Bmkf70g-20" target="j5CDYh8a87OP_Bmkf70g-28" edge="1">
          <mxGeometry width="50" height="50" relative="1" as="geometry">
            <mxPoint x="370" y="1000" as="sourcePoint" />
            <mxPoint x="420" y="950" as="targetPoint" />
          </mxGeometry>
        </mxCell>
        <mxCell id="j5CDYh8a87OP_Bmkf70g-46" value="&amp;lt;&amp;lt;include&amp;gt;&amp;gt;" style="endArrow=open;endSize=12;dashed=1;html=1;rounded=0;exitX=0;exitY=0.5;exitDx=0;exitDy=0;entryX=1;entryY=0.5;entryDx=0;entryDy=0;" parent="1" source="j5CDYh8a87OP_Bmkf70g-28" target="j5CDYh8a87OP_Bmkf70g-29" edge="1">
          <mxGeometry width="160" relative="1" as="geometry">
            <mxPoint x="100" y="1130" as="sourcePoint" />
            <mxPoint x="260" y="1130" as="targetPoint" />
          </mxGeometry>
        </mxCell>
        <mxCell id="j5CDYh8a87OP_Bmkf70g-47" value="&amp;lt;&amp;lt;include&amp;gt;&amp;gt;" style="endArrow=open;endSize=12;dashed=1;html=1;rounded=0;exitX=0.5;exitY=0;exitDx=0;exitDy=0;entryX=0.5;entryY=1;entryDx=0;entryDy=0;" parent="1" source="j5CDYh8a87OP_Bmkf70g-28" target="j5CDYh8a87OP_Bmkf70g-30" edge="1">
          <mxGeometry width="160" relative="1" as="geometry">
            <mxPoint x="110" y="1140" as="sourcePoint" />
            <mxPoint x="270" y="1140" as="targetPoint" />
          </mxGeometry>
        </mxCell>
        <mxCell id="j5CDYh8a87OP_Bmkf70g-48" value="&amp;lt;&amp;lt;include&amp;gt;&amp;gt;" style="endArrow=open;endSize=12;dashed=1;html=1;rounded=0;exitX=1;exitY=0.5;exitDx=0;exitDy=0;entryX=0;entryY=0.5;entryDx=0;entryDy=0;" parent="1" source="j5CDYh8a87OP_Bmkf70g-28" target="j5CDYh8a87OP_Bmkf70g-31" edge="1">
          <mxGeometry width="160" relative="1" as="geometry">
            <mxPoint x="120" y="1150" as="sourcePoint" />
            <mxPoint x="493" y="829" as="targetPoint" />
          </mxGeometry>
        </mxCell>
        <mxCell id="U32x_HRXyt1qe6SWbt8D-1" value="AdminProduct.vue" style="swimlane;fontStyle=0;childLayout=stackLayout;horizontal=1;startSize=26;fillColor=none;horizontalStack=0;resizeParent=1;resizeParentMax=0;resizeLast=0;collapsible=1;marginBottom=0;whiteSpace=wrap;html=1;" vertex="1" parent="1">
          <mxGeometry x="1740" y="-1475" width="210" height="210" as="geometry" />
        </mxCell>
        <mxCell id="U32x_HRXyt1qe6SWbt8D-2" value="+&amp;nbsp;addProduct&lt;span style=&quot;background-color: rgb(31, 31, 31); color: rgb(204, 204, 204); font-family: Consolas, &amp;quot;Courier New&amp;quot;, monospace; font-size: 14px;&quot;&gt;()&lt;/span&gt;" style="text;strokeColor=none;fillColor=none;align=left;verticalAlign=top;spacingLeft=4;spacingRight=4;overflow=hidden;rotatable=0;points=[[0,0.5],[1,0.5]];portConstraint=eastwest;whiteSpace=wrap;html=1;" vertex="1" parent="U32x_HRXyt1qe6SWbt8D-1">
          <mxGeometry y="26" width="210" height="26" as="geometry" />
        </mxCell>
        <mxCell id="U32x_HRXyt1qe6SWbt8D-3" value="+&amp;nbsp;addBubbleTea ( )" style="text;strokeColor=none;fillColor=none;align=left;verticalAlign=top;spacingLeft=4;spacingRight=4;overflow=hidden;rotatable=0;points=[[0,0.5],[1,0.5]];portConstraint=eastwest;whiteSpace=wrap;html=1;" vertex="1" parent="U32x_HRXyt1qe6SWbt8D-1">
          <mxGeometry y="52" width="210" height="26" as="geometry" />
        </mxCell>
        <mxCell id="U32x_HRXyt1qe6SWbt8D-4" value="+&amp;nbsp;showSuccessMessage&lt;span style=&quot;background-color: rgb(31, 31, 31); color: rgb(204, 204, 204); font-family: Consolas, &amp;quot;Courier New&amp;quot;, monospace; font-size: 14px;&quot;&gt;(&lt;/span&gt;&lt;span style=&quot;font-family: Consolas, &amp;quot;Courier New&amp;quot;, monospace; font-size: 14px; color: rgb(156, 220, 254);&quot;&gt;message&lt;/span&gt;)&lt;br&gt;+&amp;nbsp;&lt;span style=&quot;font-family: Consolas, &amp;quot;Courier New&amp;quot;, monospace; font-size: 14px; color: rgb(220, 220, 170);&quot;&gt;handleImageChange&lt;/span&gt;&lt;span style=&quot;background-color: rgb(31, 31, 31); color: rgb(204, 204, 204); font-family: Consolas, &amp;quot;Courier New&amp;quot;, monospace; font-size: 14px;&quot;&gt;(&lt;/span&gt;&lt;span style=&quot;font-family: Consolas, &amp;quot;Courier New&amp;quot;, monospace; font-size: 14px; color: rgb(156, 220, 254);&quot;&gt;event&lt;/span&gt;)&lt;br&gt;+&lt;span style=&quot;background-color: rgb(31, 31, 31); color: rgb(204, 204, 204); font-family: Consolas, &amp;quot;Courier New&amp;quot;, monospace; font-size: 14px;&quot;&gt;&amp;nbsp;&lt;/span&gt;&lt;span style=&quot;font-family: Consolas, &amp;quot;Courier New&amp;quot;, monospace; font-size: 14px; color: rgb(220, 220, 170);&quot;&gt;getImageUrl&lt;/span&gt;&lt;span style=&quot;background-color: rgb(31, 31, 31); color: rgb(204, 204, 204); font-family: Consolas, &amp;quot;Courier New&amp;quot;, monospace; font-size: 14px;&quot;&gt;(&lt;/span&gt;&lt;span style=&quot;font-family: Consolas, &amp;quot;Courier New&amp;quot;, monospace; font-size: 14px; color: rgb(156, 220, 254);&quot;&gt;imageName&lt;/span&gt;)&lt;br&gt;+&amp;nbsp;&lt;span style=&quot;font-family: Consolas, &amp;quot;Courier New&amp;quot;, monospace; font-size: 14px; color: rgb(220, 220, 170);&quot;&gt;editProduct&lt;/span&gt;&lt;span style=&quot;background-color: rgb(31, 31, 31); color: rgb(204, 204, 204); font-family: Consolas, &amp;quot;Courier New&amp;quot;, monospace; font-size: 14px;&quot;&gt;(&lt;/span&gt;&lt;span style=&quot;font-family: Consolas, &amp;quot;Courier New&amp;quot;, monospace; font-size: 14px; color: rgb(156, 220, 254);&quot;&gt;product&lt;/span&gt;)&lt;br&gt;+&amp;nbsp;&lt;span style=&quot;font-family: Consolas, &amp;quot;Courier New&amp;quot;, monospace; font-size: 14px; color: rgb(220, 220, 170);&quot;&gt;updateProduct&lt;/span&gt;()&lt;br&gt;+&amp;nbsp;&lt;span style=&quot;font-family: Consolas, &amp;quot;Courier New&amp;quot;, monospace; font-size: 14px; color: rgb(220, 220, 170);&quot;&gt;deleteProduct&lt;/span&gt;&lt;span style=&quot;background-color: rgb(31, 31, 31); color: rgb(204, 204, 204); font-family: Consolas, &amp;quot;Courier New&amp;quot;, monospace; font-size: 14px;&quot;&gt;(&lt;/span&gt;&lt;span style=&quot;font-family: Consolas, &amp;quot;Courier New&amp;quot;, monospace; font-size: 14px; color: rgb(156, 220, 254);&quot;&gt;id&lt;/span&gt;)&lt;br&gt;+&amp;nbsp;&lt;span style=&quot;font-family: Consolas, &amp;quot;Courier New&amp;quot;, monospace; font-size: 14px; color: rgb(220, 220, 170);&quot;&gt;mounted&lt;/span&gt;&lt;span style=&quot;background-color: rgb(31, 31, 31); color: rgb(204, 204, 204); font-family: Consolas, &amp;quot;Courier New&amp;quot;, monospace; font-size: 14px;&quot;&gt;()&lt;/span&gt;" style="text;strokeColor=none;fillColor=none;align=left;verticalAlign=top;spacingLeft=4;spacingRight=4;overflow=hidden;rotatable=0;points=[[0,0.5],[1,0.5]];portConstraint=eastwest;whiteSpace=wrap;html=1;" vertex="1" parent="U32x_HRXyt1qe6SWbt8D-1">
          <mxGeometry y="78" width="210" height="132" as="geometry" />
        </mxCell>
        <mxCell id="U32x_HRXyt1qe6SWbt8D-5" value="BubbleTea.js" style="swimlane;fontStyle=0;childLayout=stackLayout;horizontal=1;startSize=26;fillColor=none;horizontalStack=0;resizeParent=1;resizeParentMax=0;resizeLast=0;collapsible=1;marginBottom=0;whiteSpace=wrap;html=1;" vertex="1" parent="1">
          <mxGeometry x="1000" y="-1160" width="140" height="104" as="geometry" />
        </mxCell>
        <mxCell id="U32x_HRXyt1qe6SWbt8D-6" value="+ field: type" style="text;strokeColor=none;fillColor=none;align=left;verticalAlign=top;spacingLeft=4;spacingRight=4;overflow=hidden;rotatable=0;points=[[0,0.5],[1,0.5]];portConstraint=eastwest;whiteSpace=wrap;html=1;" vertex="1" parent="U32x_HRXyt1qe6SWbt8D-5">
          <mxGeometry y="26" width="140" height="26" as="geometry" />
        </mxCell>
        <mxCell id="U32x_HRXyt1qe6SWbt8D-7" value="+ field: type" style="text;strokeColor=none;fillColor=none;align=left;verticalAlign=top;spacingLeft=4;spacingRight=4;overflow=hidden;rotatable=0;points=[[0,0.5],[1,0.5]];portConstraint=eastwest;whiteSpace=wrap;html=1;" vertex="1" parent="U32x_HRXyt1qe6SWbt8D-5">
          <mxGeometry y="52" width="140" height="26" as="geometry" />
        </mxCell>
        <mxCell id="U32x_HRXyt1qe6SWbt8D-8" value="+ field: type" style="text;strokeColor=none;fillColor=none;align=left;verticalAlign=top;spacingLeft=4;spacingRight=4;overflow=hidden;rotatable=0;points=[[0,0.5],[1,0.5]];portConstraint=eastwest;whiteSpace=wrap;html=1;" vertex="1" parent="U32x_HRXyt1qe6SWbt8D-5">
          <mxGeometry y="78" width="140" height="26" as="geometry" />
        </mxCell>
        <mxCell id="U32x_HRXyt1qe6SWbt8D-9" value="productList.vue" style="swimlane;fontStyle=0;childLayout=stackLayout;horizontal=1;startSize=26;fillColor=none;horizontalStack=0;resizeParent=1;resizeParentMax=0;resizeLast=0;collapsible=1;marginBottom=0;whiteSpace=wrap;html=1;" vertex="1" parent="1">
          <mxGeometry x="660" y="-1330" width="140" height="104" as="geometry" />
        </mxCell>
        <mxCell id="U32x_HRXyt1qe6SWbt8D-10" value="+ field: type" style="text;strokeColor=none;fillColor=none;align=left;verticalAlign=top;spacingLeft=4;spacingRight=4;overflow=hidden;rotatable=0;points=[[0,0.5],[1,0.5]];portConstraint=eastwest;whiteSpace=wrap;html=1;" vertex="1" parent="U32x_HRXyt1qe6SWbt8D-9">
          <mxGeometry y="26" width="140" height="26" as="geometry" />
        </mxCell>
        <mxCell id="U32x_HRXyt1qe6SWbt8D-11" value="+ field: type" style="text;strokeColor=none;fillColor=none;align=left;verticalAlign=top;spacingLeft=4;spacingRight=4;overflow=hidden;rotatable=0;points=[[0,0.5],[1,0.5]];portConstraint=eastwest;whiteSpace=wrap;html=1;" vertex="1" parent="U32x_HRXyt1qe6SWbt8D-9">
          <mxGeometry y="52" width="140" height="26" as="geometry" />
        </mxCell>
        <mxCell id="U32x_HRXyt1qe6SWbt8D-12" value="+ field: type" style="text;strokeColor=none;fillColor=none;align=left;verticalAlign=top;spacingLeft=4;spacingRight=4;overflow=hidden;rotatable=0;points=[[0,0.5],[1,0.5]];portConstraint=eastwest;whiteSpace=wrap;html=1;" vertex="1" parent="U32x_HRXyt1qe6SWbt8D-9">
          <mxGeometry y="78" width="140" height="26" as="geometry" />
        </mxCell>
        <mxCell id="U32x_HRXyt1qe6SWbt8D-17" value="product.json" style="swimlane;fontStyle=0;childLayout=stackLayout;horizontal=1;startSize=26;fillColor=none;horizontalStack=0;resizeParent=1;resizeParentMax=0;resizeLast=0;collapsible=1;marginBottom=0;whiteSpace=wrap;html=1;" vertex="1" parent="1">
          <mxGeometry x="1250" y="-920" width="140" height="104" as="geometry" />
        </mxCell>
        <mxCell id="U32x_HRXyt1qe6SWbt8D-18" value="+ field: type" style="text;strokeColor=none;fillColor=none;align=left;verticalAlign=top;spacingLeft=4;spacingRight=4;overflow=hidden;rotatable=0;points=[[0,0.5],[1,0.5]];portConstraint=eastwest;whiteSpace=wrap;html=1;" vertex="1" parent="U32x_HRXyt1qe6SWbt8D-17">
          <mxGeometry y="26" width="140" height="26" as="geometry" />
        </mxCell>
        <mxCell id="U32x_HRXyt1qe6SWbt8D-19" value="+ field: type" style="text;strokeColor=none;fillColor=none;align=left;verticalAlign=top;spacingLeft=4;spacingRight=4;overflow=hidden;rotatable=0;points=[[0,0.5],[1,0.5]];portConstraint=eastwest;whiteSpace=wrap;html=1;" vertex="1" parent="U32x_HRXyt1qe6SWbt8D-17">
          <mxGeometry y="52" width="140" height="26" as="geometry" />
        </mxCell>
        <mxCell id="U32x_HRXyt1qe6SWbt8D-20" value="+ field: type" style="text;strokeColor=none;fillColor=none;align=left;verticalAlign=top;spacingLeft=4;spacingRight=4;overflow=hidden;rotatable=0;points=[[0,0.5],[1,0.5]];portConstraint=eastwest;whiteSpace=wrap;html=1;" vertex="1" parent="U32x_HRXyt1qe6SWbt8D-17">
          <mxGeometry y="78" width="140" height="26" as="geometry" />
        </mxCell>
        <mxCell id="U32x_HRXyt1qe6SWbt8D-21" value="AdminDashboard.vue" style="swimlane;fontStyle=0;childLayout=stackLayout;horizontal=1;startSize=26;fillColor=none;horizontalStack=0;resizeParent=1;resizeParentMax=0;resizeLast=0;collapsible=1;marginBottom=0;whiteSpace=wrap;html=1;" vertex="1" parent="1">
          <mxGeometry x="1610" y="-1600" width="140" height="52" as="geometry" />
        </mxCell>
        <mxCell id="U32x_HRXyt1qe6SWbt8D-22" value="+ field: type" style="text;strokeColor=none;fillColor=none;align=left;verticalAlign=top;spacingLeft=4;spacingRight=4;overflow=hidden;rotatable=0;points=[[0,0.5],[1,0.5]];portConstraint=eastwest;whiteSpace=wrap;html=1;" vertex="1" parent="U32x_HRXyt1qe6SWbt8D-21">
          <mxGeometry y="26" width="140" height="26" as="geometry" />
        </mxCell>
        <mxCell id="U32x_HRXyt1qe6SWbt8D-29" value="" style="endArrow=classic;html=1;rounded=0;exitX=0.506;exitY=1.054;exitDx=0;exitDy=0;exitPerimeter=0;entryX=0.589;entryY=-0.006;entryDx=0;entryDy=0;entryPerimeter=0;" edge="1" parent="1" source="U32x_HRXyt1qe6SWbt8D-16" target="U32x_HRXyt1qe6SWbt8D-17">
          <mxGeometry width="50" height="50" relative="1" as="geometry">
            <mxPoint x="1330" y="-1150" as="sourcePoint" />
            <mxPoint x="1380" y="-1200" as="targetPoint" />
          </mxGeometry>
        </mxCell>
        <mxCell id="U32x_HRXyt1qe6SWbt8D-30" value="" style="endArrow=classic;html=1;rounded=0;exitX=0.614;exitY=1.008;exitDx=0;exitDy=0;entryX=0.206;entryY=-0.002;entryDx=0;entryDy=0;entryPerimeter=0;exitPerimeter=0;" edge="1" parent="1" source="U32x_HRXyt1qe6SWbt8D-8" target="U32x_HRXyt1qe6SWbt8D-17">
          <mxGeometry width="50" height="50" relative="1" as="geometry">
            <mxPoint x="1420" y="-1150" as="sourcePoint" />
            <mxPoint x="1400" y="-1180" as="targetPoint" />
          </mxGeometry>
        </mxCell>
        <mxCell id="U32x_HRXyt1qe6SWbt8D-32" value="" style="endArrow=classic;html=1;rounded=0;exitX=0.495;exitY=1.014;exitDx=0;exitDy=0;entryX=0.371;entryY=-0.002;entryDx=0;entryDy=0;exitPerimeter=0;entryPerimeter=0;" edge="1" parent="1" source="U32x_HRXyt1qe6SWbt8D-37" target="U32x_HRXyt1qe6SWbt8D-13">
          <mxGeometry width="50" height="50" relative="1" as="geometry">
            <mxPoint x="1500" y="-1361" as="sourcePoint" />
            <mxPoint x="1410" y="-1000" as="targetPoint" />
          </mxGeometry>
        </mxCell>
        <mxCell id="U32x_HRXyt1qe6SWbt8D-34" value="" style="shape=link;html=1;rounded=0;" edge="1" parent="1">
          <mxGeometry width="100" relative="1" as="geometry">
            <mxPoint x="670" y="-950" as="sourcePoint" />
            <mxPoint x="2100.800048828125" y="-950" as="targetPoint" />
          </mxGeometry>
        </mxCell>
        <mxCell id="U32x_HRXyt1qe6SWbt8D-35" value="AdminUser.vue" style="swimlane;fontStyle=0;childLayout=stackLayout;horizontal=1;startSize=26;fillColor=none;horizontalStack=0;resizeParent=1;resizeParentMax=0;resizeLast=0;collapsible=1;marginBottom=0;whiteSpace=wrap;html=1;" vertex="1" parent="1">
          <mxGeometry x="1430" y="-1470" width="170" height="200" as="geometry" />
        </mxCell>
        <mxCell id="U32x_HRXyt1qe6SWbt8D-37" value="+&amp;nbsp;fetchUsers()&lt;br&gt;+&amp;nbsp;&lt;span style=&quot;font-family: Consolas, &amp;quot;Courier New&amp;quot;, monospace; font-size: 14px; color: rgb(86, 156, 214);&quot;&gt;async&lt;/span&gt;&lt;span style=&quot;background-color: rgb(31, 31, 31); color: rgb(204, 204, 204); font-family: Consolas, &amp;quot;Courier New&amp;quot;, monospace; font-size: 14px;&quot;&gt; &lt;/span&gt;&lt;span style=&quot;font-family: Consolas, &amp;quot;Courier New&amp;quot;, monospace; font-size: 14px; color: rgb(220, 220, 170);&quot;&gt;saveUser&lt;/span&gt;()&lt;br&gt;+&amp;nbsp;&lt;span style=&quot;font-family: Consolas, &amp;quot;Courier New&amp;quot;, monospace; font-size: 14px; color: rgb(220, 220, 170);&quot;&gt;closeEditModal&lt;/span&gt;()&lt;br&gt;+&amp;nbsp;&lt;span style=&quot;font-family: Consolas, &amp;quot;Courier New&amp;quot;, monospace; font-size: 14px; color: rgb(220, 220, 170);&quot;&gt;editUser&lt;/span&gt;&lt;span style=&quot;background-color: rgb(31, 31, 31); color: rgb(204, 204, 204); font-family: Consolas, &amp;quot;Courier New&amp;quot;, monospace; font-size: 14px;&quot;&gt;(&lt;/span&gt;&lt;span style=&quot;font-family: Consolas, &amp;quot;Courier New&amp;quot;, monospace; font-size: 14px; color: rgb(156, 220, 254);&quot;&gt;user&lt;/span&gt;)&lt;br&gt;+&amp;nbsp;&lt;span style=&quot;font-family: Consolas, &amp;quot;Courier New&amp;quot;, monospace; font-size: 14px; color: rgb(86, 156, 214);&quot;&gt;async&lt;/span&gt;&lt;span style=&quot;background-color: rgb(31, 31, 31); color: rgb(204, 204, 204); font-family: Consolas, &amp;quot;Courier New&amp;quot;, monospace; font-size: 14px;&quot;&gt; &lt;/span&gt;&lt;span style=&quot;font-family: Consolas, &amp;quot;Courier New&amp;quot;, monospace; font-size: 14px; color: rgb(220, 220, 170);&quot;&gt;deactivateUser&lt;/span&gt;&lt;span style=&quot;background-color: rgb(31, 31, 31); color: rgb(204, 204, 204); font-family: Consolas, &amp;quot;Courier New&amp;quot;, monospace; font-size: 14px;&quot;&gt;(&lt;/span&gt;&lt;span style=&quot;font-family: Consolas, &amp;quot;Courier New&amp;quot;, monospace; font-size: 14px; color: rgb(156, 220, 254);&quot;&gt;userId&lt;/span&gt;)&lt;br&gt;+&lt;span style=&quot;font-family: Consolas, &amp;quot;Courier New&amp;quot;, monospace; font-size: 14px; color: rgb(86, 156, 214);&quot;&gt;async&lt;/span&gt;&lt;span style=&quot;background-color: rgb(31, 31, 31); color: rgb(204, 204, 204); font-family: Consolas, &amp;quot;Courier New&amp;quot;, monospace; font-size: 14px;&quot;&gt; &lt;/span&gt;&lt;span style=&quot;font-family: Consolas, &amp;quot;Courier New&amp;quot;, monospace; font-size: 14px; color: rgb(220, 220, 170);&quot;&gt;activateUser&lt;/span&gt;&lt;span style=&quot;background-color: rgb(31, 31, 31); color: rgb(204, 204, 204); font-family: Consolas, &amp;quot;Courier New&amp;quot;, monospace; font-size: 14px;&quot;&gt;(&lt;/span&gt;&lt;span style=&quot;font-family: Consolas, &amp;quot;Courier New&amp;quot;, monospace; font-size: 14px; color: rgb(156, 220, 254);&quot;&gt;userId&lt;/span&gt;)&lt;br&gt;+&amp;nbsp;&lt;span style=&quot;font-family: Consolas, &amp;quot;Courier New&amp;quot;, monospace; font-size: 14px; color: rgb(86, 156, 214);&quot;&gt;async&lt;/span&gt;&lt;span style=&quot;background-color: rgb(31, 31, 31); color: rgb(204, 204, 204); font-family: Consolas, &amp;quot;Courier New&amp;quot;, monospace; font-size: 14px;&quot;&gt; &lt;/span&gt;&lt;span style=&quot;font-family: Consolas, &amp;quot;Courier New&amp;quot;, monospace; font-size: 14px; color: rgb(220, 220, 170);&quot;&gt;deleteUser&lt;/span&gt;&lt;span style=&quot;background-color: rgb(31, 31, 31); color: rgb(204, 204, 204); font-family: Consolas, &amp;quot;Courier New&amp;quot;, monospace; font-size: 14px;&quot;&gt;(&lt;/span&gt;&lt;span style=&quot;font-family: Consolas, &amp;quot;Courier New&amp;quot;, monospace; font-size: 14px; color: rgb(156, 220, 254);&quot;&gt;userId&lt;/span&gt;&lt;span style=&quot;background-color: rgb(31, 31, 31); color: rgb(204, 204, 204); font-family: Consolas, &amp;quot;Courier New&amp;quot;, monospace; font-size: 14px;&quot;&gt;)&lt;/span&gt;" style="text;strokeColor=none;fillColor=none;align=left;verticalAlign=top;spacingLeft=4;spacingRight=4;overflow=hidden;rotatable=0;points=[[0,0.5],[1,0.5]];portConstraint=eastwest;whiteSpace=wrap;html=1;" vertex="1" parent="U32x_HRXyt1qe6SWbt8D-35">
          <mxGeometry y="26" width="170" height="174" as="geometry" />
        </mxCell>
        <mxCell id="U32x_HRXyt1qe6SWbt8D-39" value="AppFooter.vue" style="swimlane;fontStyle=0;childLayout=stackLayout;horizontal=1;startSize=26;fillColor=none;horizontalStack=0;resizeParent=1;resizeParentMax=0;resizeLast=0;collapsible=1;marginBottom=0;whiteSpace=wrap;html=1;" vertex="1" parent="1">
          <mxGeometry x="940" y="-1652" width="140" height="52" as="geometry" />
        </mxCell>
        <mxCell id="U32x_HRXyt1qe6SWbt8D-40" value="+ field: type" style="text;strokeColor=none;fillColor=none;align=left;verticalAlign=top;spacingLeft=4;spacingRight=4;overflow=hidden;rotatable=0;points=[[0,0.5],[1,0.5]];portConstraint=eastwest;whiteSpace=wrap;html=1;" vertex="1" parent="U32x_HRXyt1qe6SWbt8D-39">
          <mxGeometry y="26" width="140" height="26" as="geometry" />
        </mxCell>
        <mxCell id="U32x_HRXyt1qe6SWbt8D-43" value="AppHeader.vue" style="swimlane;fontStyle=0;childLayout=stackLayout;horizontal=1;startSize=26;fillColor=none;horizontalStack=0;resizeParent=1;resizeParentMax=0;resizeLast=0;collapsible=1;marginBottom=0;whiteSpace=wrap;html=1;" vertex="1" parent="1">
          <mxGeometry x="940" y="-1565" width="140" height="90" as="geometry" />
        </mxCell>
        <mxCell id="U32x_HRXyt1qe6SWbt8D-44" value="+&amp;nbsp;logout()&lt;br&gt;+&amp;nbsp;&lt;span style=&quot;font-family: Consolas, &amp;quot;Courier New&amp;quot;, monospace; font-size: 14px; color: rgb(220, 220, 170);&quot;&gt;cartCount&lt;/span&gt;()&lt;br&gt;+&amp;nbsp;&lt;span style=&quot;font-family: Consolas, &amp;quot;Courier New&amp;quot;, monospace; font-size: 14px; color: rgb(220, 220, 170);&quot;&gt;isLoggedIn&lt;/span&gt;&lt;span style=&quot;background-color: rgb(31, 31, 31); color: rgb(204, 204, 204); font-family: Consolas, &amp;quot;Courier New&amp;quot;, monospace; font-size: 14px;&quot;&gt;()&lt;/span&gt;" style="text;strokeColor=none;fillColor=none;align=left;verticalAlign=top;spacingLeft=4;spacingRight=4;overflow=hidden;rotatable=0;points=[[0,0.5],[1,0.5]];portConstraint=eastwest;whiteSpace=wrap;html=1;" vertex="1" parent="U32x_HRXyt1qe6SWbt8D-43">
          <mxGeometry y="26" width="140" height="64" as="geometry" />
        </mxCell>
        <mxCell id="U32x_HRXyt1qe6SWbt8D-47" value="ProductDetailCard.vue" style="swimlane;fontStyle=0;childLayout=stackLayout;horizontal=1;startSize=26;fillColor=none;horizontalStack=0;resizeParent=1;resizeParentMax=0;resizeLast=0;collapsible=1;marginBottom=0;whiteSpace=wrap;html=1;" vertex="1" parent="1">
          <mxGeometry x="90" y="-1490" width="190" height="150" as="geometry" />
        </mxCell>
        <mxCell id="U32x_HRXyt1qe6SWbt8D-48" value="+&amp;nbsp;product&lt;span style=&quot;font-family: Consolas, &amp;quot;Courier New&amp;quot;, monospace; font-size: 14px; color: rgb(156, 220, 254);&quot;&gt;:&lt;/span&gt;&lt;span style=&quot;background-color: rgb(31, 31, 31); color: rgb(204, 204, 204); font-family: Consolas, &amp;quot;Courier New&amp;quot;, monospace; font-size: 14px;&quot;&gt; &lt;/span&gt;Object&lt;br&gt;+&amp;nbsp;&lt;span style=&quot;font-family: Consolas, &amp;quot;Courier New&amp;quot;, monospace; font-size: 14px; color: rgb(78, 201, 176);&quot;&gt;formattedPrice&lt;/span&gt;&lt;span style=&quot;font-family: Consolas, &amp;quot;Courier New&amp;quot;, monospace; font-size: 14px; color: rgb(156, 220, 254);&quot;&gt;:&lt;/span&gt;&lt;span style=&quot;background-color: rgb(31, 31, 31); color: rgb(204, 204, 204); font-family: Consolas, &amp;quot;Courier New&amp;quot;, monospace; font-size: 14px;&quot;&gt; &lt;/span&gt;String&lt;br&gt;+&amp;nbsp;&lt;span style=&quot;font-family: Consolas, &amp;quot;Courier New&amp;quot;, monospace; font-size: 14px; color: rgb(78, 201, 176);&quot;&gt;getImageUrl&lt;/span&gt;&lt;span style=&quot;font-family: Consolas, &amp;quot;Courier New&amp;quot;, monospace; font-size: 14px; color: rgb(156, 220, 254);&quot;&gt;:&lt;/span&gt;&lt;span style=&quot;background-color: rgb(31, 31, 31); color: rgb(204, 204, 204); font-family: Consolas, &amp;quot;Courier New&amp;quot;, monospace; font-size: 14px;&quot;&gt; &lt;/span&gt;Function&lt;br&gt;+&amp;nbsp;&lt;span style=&quot;font-family: Consolas, &amp;quot;Courier New&amp;quot;, monospace; font-size: 14px; color: rgb(78, 201, 176);&quot;&gt;addToCartAndRedirect&lt;/span&gt;&lt;span style=&quot;font-family: Consolas, &amp;quot;Courier New&amp;quot;, monospace; font-size: 14px; color: rgb(156, 220, 254);&quot;&gt;:&lt;/span&gt;&lt;span style=&quot;background-color: rgb(31, 31, 31); color: rgb(204, 204, 204); font-family: Consolas, &amp;quot;Courier New&amp;quot;, monospace; font-size: 14px;&quot;&gt; &lt;/span&gt;Function&lt;br&gt;+&amp;nbsp;&lt;span style=&quot;font-family: Consolas, &amp;quot;Courier New&amp;quot;, monospace; font-size: 14px; color: rgb(78, 201, 176);&quot;&gt;goBackToProducts&lt;/span&gt;&lt;span style=&quot;font-family: Consolas, &amp;quot;Courier New&amp;quot;, monospace; font-size: 14px; color: rgb(156, 220, 254);&quot;&gt;:&lt;/span&gt;&lt;span style=&quot;background-color: rgb(31, 31, 31); color: rgb(204, 204, 204); font-family: Consolas, &amp;quot;Courier New&amp;quot;, monospace; font-size: 14px;&quot;&gt; &lt;/span&gt;&lt;span style=&quot;font-family: Consolas, &amp;quot;Courier New&amp;quot;, monospace; font-size: 14px; color: rgb(78, 201, 176);&quot;&gt;Function&lt;/span&gt;" style="text;strokeColor=none;fillColor=none;align=left;verticalAlign=top;spacingLeft=4;spacingRight=4;overflow=hidden;rotatable=0;points=[[0,0.5],[1,0.5]];portConstraint=eastwest;whiteSpace=wrap;html=1;" vertex="1" parent="U32x_HRXyt1qe6SWbt8D-47">
          <mxGeometry y="26" width="190" height="124" as="geometry" />
        </mxCell>
        <mxCell id="U32x_HRXyt1qe6SWbt8D-51" value="ProductItem.vue" style="swimlane;fontStyle=0;childLayout=stackLayout;horizontal=1;startSize=26;fillColor=none;horizontalStack=0;resizeParent=1;resizeParentMax=0;resizeLast=0;collapsible=1;marginBottom=0;whiteSpace=wrap;html=1;" vertex="1" parent="1">
          <mxGeometry x="380" y="-1166" width="240" height="110" as="geometry" />
        </mxCell>
        <mxCell id="U32x_HRXyt1qe6SWbt8D-52" value="+&amp;nbsp;formatCurrency&lt;span style=&quot;background-color: rgb(31, 31, 31); color: rgb(204, 204, 204); font-family: Consolas, &amp;quot;Courier New&amp;quot;, monospace; font-size: 14px;&quot;&gt;(&lt;/span&gt;&lt;span style=&quot;font-family: Consolas, &amp;quot;Courier New&amp;quot;, monospace; font-size: 14px; color: rgb(156, 220, 254);&quot;&gt;value&lt;/span&gt;)&lt;br&gt;+&amp;nbsp;&lt;span style=&quot;font-family: Consolas, &amp;quot;Courier New&amp;quot;, monospace; font-size: 14px; color: rgb(220, 220, 170);&quot;&gt;getImageUrl&lt;/span&gt;&lt;span style=&quot;background-color: rgb(31, 31, 31); color: rgb(204, 204, 204); font-family: Consolas, &amp;quot;Courier New&amp;quot;, monospace; font-size: 14px;&quot;&gt;(&lt;/span&gt;&lt;span style=&quot;font-family: Consolas, &amp;quot;Courier New&amp;quot;, monospace; font-size: 14px; color: rgb(156, 220, 254);&quot;&gt;imageName&lt;/span&gt;)&lt;br&gt;+&amp;nbsp;&lt;span style=&quot;font-family: Consolas, &amp;quot;Courier New&amp;quot;, monospace; font-size: 14px; color: rgb(220, 220, 170);&quot;&gt;goToProductDetail&lt;/span&gt;&lt;span style=&quot;background-color: rgb(31, 31, 31); color: rgb(204, 204, 204); font-family: Consolas, &amp;quot;Courier New&amp;quot;, monospace; font-size: 14px;&quot;&gt;(&lt;/span&gt;&lt;span style=&quot;font-family: Consolas, &amp;quot;Courier New&amp;quot;, monospace; font-size: 14px; color: rgb(156, 220, 254);&quot;&gt;productId&lt;/span&gt;)&lt;br&gt;&lt;div style=&quot;color: rgb(204, 204, 204); background-color: rgb(31, 31, 31); font-family: Consolas, &amp;quot;Courier New&amp;quot;, monospace; font-size: 14px; line-height: 19px;&quot;&gt;&lt;span style=&quot;color: #dcdcaa;&quot;&gt;+addToCartAndRedirect&lt;/span&gt;(&lt;span style=&quot;color: #9cdcfe;&quot;&gt;product&lt;/span&gt;)&lt;/div&gt;&lt;div style=&quot;color: rgb(204, 204, 204); background-color: rgb(31, 31, 31); font-family: Consolas, &amp;quot;Courier New&amp;quot;, monospace; font-size: 14px; line-height: 19px;&quot;&gt;&lt;br&gt;&lt;/div&gt;" style="text;strokeColor=none;fillColor=none;align=left;verticalAlign=top;spacingLeft=4;spacingRight=4;overflow=hidden;rotatable=0;points=[[0,0.5],[1,0.5]];portConstraint=eastwest;whiteSpace=wrap;html=1;" vertex="1" parent="U32x_HRXyt1qe6SWbt8D-51">
          <mxGeometry y="26" width="240" height="84" as="geometry" />
        </mxCell>
        <mxCell id="U32x_HRXyt1qe6SWbt8D-56" value="" style="endArrow=classic;html=1;rounded=0;exitX=0.169;exitY=1.085;exitDx=0;exitDy=0;exitPerimeter=0;entryX=0.861;entryY=0;entryDx=0;entryDy=0;entryPerimeter=0;" edge="1" parent="1" source="U32x_HRXyt1qe6SWbt8D-22" target="U32x_HRXyt1qe6SWbt8D-35">
          <mxGeometry width="50" height="50" relative="1" as="geometry">
            <mxPoint x="1440" y="-1470" as="sourcePoint" />
            <mxPoint x="1490" y="-1520" as="targetPoint" />
          </mxGeometry>
        </mxCell>
        <mxCell id="U32x_HRXyt1qe6SWbt8D-57" value="" style="endArrow=classic;html=1;rounded=0;entryX=0.25;entryY=0;entryDx=0;entryDy=0;exitX=0.929;exitY=1.143;exitDx=0;exitDy=0;exitPerimeter=0;" edge="1" parent="1" source="U32x_HRXyt1qe6SWbt8D-22" target="U32x_HRXyt1qe6SWbt8D-1">
          <mxGeometry width="50" height="50" relative="1" as="geometry">
            <mxPoint x="1910" y="-1400" as="sourcePoint" />
            <mxPoint x="1990" y="-1400" as="targetPoint" />
          </mxGeometry>
        </mxCell>
        <mxCell id="U32x_HRXyt1qe6SWbt8D-13" value="Users.js" style="swimlane;fontStyle=0;childLayout=stackLayout;horizontal=1;startSize=26;fillColor=none;horizontalStack=0;resizeParent=1;resizeParentMax=0;resizeLast=0;collapsible=1;marginBottom=0;whiteSpace=wrap;html=1;" vertex="1" parent="1">
          <mxGeometry x="1460" y="-1160" width="140" height="104" as="geometry" />
        </mxCell>
        <mxCell id="U32x_HRXyt1qe6SWbt8D-14" value="+ field: type" style="text;strokeColor=none;fillColor=none;align=left;verticalAlign=top;spacingLeft=4;spacingRight=4;overflow=hidden;rotatable=0;points=[[0,0.5],[1,0.5]];portConstraint=eastwest;whiteSpace=wrap;html=1;" vertex="1" parent="U32x_HRXyt1qe6SWbt8D-13">
          <mxGeometry y="26" width="140" height="26" as="geometry" />
        </mxCell>
        <mxCell id="U32x_HRXyt1qe6SWbt8D-15" value="+ field: type" style="text;strokeColor=none;fillColor=none;align=left;verticalAlign=top;spacingLeft=4;spacingRight=4;overflow=hidden;rotatable=0;points=[[0,0.5],[1,0.5]];portConstraint=eastwest;whiteSpace=wrap;html=1;" vertex="1" parent="U32x_HRXyt1qe6SWbt8D-13">
          <mxGeometry y="52" width="140" height="26" as="geometry" />
        </mxCell>
        <mxCell id="U32x_HRXyt1qe6SWbt8D-16" value="+ field: type" style="text;strokeColor=none;fillColor=none;align=left;verticalAlign=top;spacingLeft=4;spacingRight=4;overflow=hidden;rotatable=0;points=[[0,0.5],[1,0.5]];portConstraint=eastwest;whiteSpace=wrap;html=1;" vertex="1" parent="U32x_HRXyt1qe6SWbt8D-13">
          <mxGeometry y="78" width="140" height="26" as="geometry" />
        </mxCell>
        <mxCell id="U32x_HRXyt1qe6SWbt8D-59" style="edgeStyle=orthogonalEdgeStyle;rounded=0;orthogonalLoop=1;jettySize=auto;html=1;exitX=1;exitY=0.5;exitDx=0;exitDy=0;" edge="1" parent="U32x_HRXyt1qe6SWbt8D-13" source="U32x_HRXyt1qe6SWbt8D-15" target="U32x_HRXyt1qe6SWbt8D-15">
          <mxGeometry relative="1" as="geometry" />
        </mxCell>
        <mxCell id="U32x_HRXyt1qe6SWbt8D-60" value="" style="shape=link;html=1;rounded=0;" edge="1" parent="1">
          <mxGeometry width="100" relative="1" as="geometry">
            <mxPoint x="1190" y="-1890" as="sourcePoint" />
            <mxPoint x="1190" y="-758.7692495492788" as="targetPoint" />
          </mxGeometry>
        </mxCell>
        <mxCell id="U32x_HRXyt1qe6SWbt8D-61" value="CartPage" style="swimlane;fontStyle=0;childLayout=stackLayout;horizontal=1;startSize=26;fillColor=none;horizontalStack=0;resizeParent=1;resizeParentMax=0;resizeLast=0;collapsible=1;marginBottom=0;whiteSpace=wrap;html=1;" vertex="1" parent="1">
          <mxGeometry x="350" y="-1850" width="210" height="170" as="geometry" />
        </mxCell>
        <mxCell id="U32x_HRXyt1qe6SWbt8D-62" value="+&amp;nbsp;cart&lt;span style=&quot;background-color: rgb(31, 31, 31); color: rgb(204, 204, 204); font-family: Consolas, &amp;quot;Courier New&amp;quot;, monospace; font-size: 14px;&quot;&gt;()&lt;/span&gt;" style="text;strokeColor=none;fillColor=none;align=left;verticalAlign=top;spacingLeft=4;spacingRight=4;overflow=hidden;rotatable=0;points=[[0,0.5],[1,0.5]];portConstraint=eastwest;whiteSpace=wrap;html=1;" vertex="1" parent="U32x_HRXyt1qe6SWbt8D-61">
          <mxGeometry y="26" width="210" height="26" as="geometry" />
        </mxCell>
        <mxCell id="U32x_HRXyt1qe6SWbt8D-63" value="+&amp;nbsp;totalAmount&lt;span style=&quot;background-color: rgb(31, 31, 31); color: rgb(204, 204, 204); font-family: Consolas, &amp;quot;Courier New&amp;quot;, monospace; font-size: 14px;&quot;&gt;()&lt;/span&gt;" style="text;strokeColor=none;fillColor=none;align=left;verticalAlign=top;spacingLeft=4;spacingRight=4;overflow=hidden;rotatable=0;points=[[0,0.5],[1,0.5]];portConstraint=eastwest;whiteSpace=wrap;html=1;" vertex="1" parent="U32x_HRXyt1qe6SWbt8D-61">
          <mxGeometry y="52" width="210" height="26" as="geometry" />
        </mxCell>
        <mxCell id="U32x_HRXyt1qe6SWbt8D-64" value="+&amp;nbsp;increaseQuantity( )&lt;br&gt;+&amp;nbsp;decreaseQuantity&lt;span style=&quot;background-color: rgb(31, 31, 31); color: rgb(204, 204, 204); font-family: Consolas, &amp;quot;Courier New&amp;quot;, monospace; font-size: 14px;&quot;&gt;(&lt;/span&gt;&lt;span style=&quot;font-family: Consolas, &amp;quot;Courier New&amp;quot;, monospace; font-size: 14px; color: rgb(156, 220, 254);&quot;&gt;productId&lt;/span&gt;)&lt;br&gt;+&amp;nbsp;&lt;span style=&quot;font-family: Consolas, &amp;quot;Courier New&amp;quot;, monospace; font-size: 14px; color: rgb(220, 220, 170);&quot;&gt;removeFromCart&lt;/span&gt;&lt;span style=&quot;background-color: rgb(31, 31, 31); color: rgb(204, 204, 204); font-family: Consolas, &amp;quot;Courier New&amp;quot;, monospace; font-size: 14px;&quot;&gt;(&lt;/span&gt;&lt;span style=&quot;font-family: Consolas, &amp;quot;Courier New&amp;quot;, monospace; font-size: 14px; color: rgb(156, 220, 254);&quot;&gt;productId&lt;/span&gt;)&lt;br&gt;+&amp;nbsp;&lt;span style=&quot;font-family: Consolas, &amp;quot;Courier New&amp;quot;, monospace; font-size: 14px; color: rgb(220, 220, 170);&quot;&gt;checkout&lt;/span&gt;()&lt;br&gt;+&amp;nbsp;&lt;span style=&quot;font-family: Consolas, &amp;quot;Courier New&amp;quot;, monospace; font-size: 14px; color: rgb(220, 220, 170);&quot;&gt;formatCurrency&lt;/span&gt;&lt;span style=&quot;background-color: rgb(31, 31, 31); color: rgb(204, 204, 204); font-family: Consolas, &amp;quot;Courier New&amp;quot;, monospace; font-size: 14px;&quot;&gt;(&lt;/span&gt;&lt;span style=&quot;font-family: Consolas, &amp;quot;Courier New&amp;quot;, monospace; font-size: 14px; color: rgb(156, 220, 254);&quot;&gt;price&lt;/span&gt;&lt;span style=&quot;background-color: rgb(31, 31, 31); color: rgb(204, 204, 204); font-family: Consolas, &amp;quot;Courier New&amp;quot;, monospace; font-size: 14px;&quot;&gt;)&lt;/span&gt;" style="text;strokeColor=none;fillColor=none;align=left;verticalAlign=top;spacingLeft=4;spacingRight=4;overflow=hidden;rotatable=0;points=[[0,0.5],[1,0.5]];portConstraint=eastwest;whiteSpace=wrap;html=1;" vertex="1" parent="U32x_HRXyt1qe6SWbt8D-61">
          <mxGeometry y="78" width="210" height="92" as="geometry" />
        </mxCell>
        <mxCell id="U32x_HRXyt1qe6SWbt8D-65" value="HomePage" style="swimlane;fontStyle=0;childLayout=stackLayout;horizontal=1;startSize=26;fillColor=none;horizontalStack=0;resizeParent=1;resizeParentMax=0;resizeLast=0;collapsible=1;marginBottom=0;whiteSpace=wrap;html=1;" vertex="1" parent="1">
          <mxGeometry x="600" y="-1638" width="200" height="90" as="geometry" />
        </mxCell>
        <mxCell id="U32x_HRXyt1qe6SWbt8D-66" value="+&amp;nbsp;getImageUrl&lt;span style=&quot;background-color: rgb(31, 31, 31); color: rgb(204, 204, 204); font-family: Consolas, &amp;quot;Courier New&amp;quot;, monospace; font-size: 14px;&quot;&gt;(&lt;/span&gt;&lt;span style=&quot;font-family: Consolas, &amp;quot;Courier New&amp;quot;, monospace; font-size: 14px; color: rgb(156, 220, 254);&quot;&gt;imageName&lt;/span&gt;)&lt;br&gt;+&amp;nbsp;&lt;span style=&quot;font-family: Consolas, &amp;quot;Courier New&amp;quot;, monospace; font-size: 14px; color: rgb(220, 220, 170);&quot;&gt;getHotProducts&lt;/span&gt;&lt;span style=&quot;background-color: rgb(31, 31, 31); color: rgb(204, 204, 204); font-family: Consolas, &amp;quot;Courier New&amp;quot;, monospace; font-size: 14px;&quot;&gt;(&lt;/span&gt;&lt;span style=&quot;font-family: Consolas, &amp;quot;Courier New&amp;quot;, monospace; font-size: 14px; color: rgb(156, 220, 254);&quot;&gt;products&lt;/span&gt;)&lt;br&gt;+&amp;nbsp;&lt;span style=&quot;font-family: Consolas, &amp;quot;Courier New&amp;quot;, monospace; font-size: 14px; color: rgb(220, 220, 170);&quot;&gt;formatPrice&lt;/span&gt;&lt;span style=&quot;background-color: rgb(31, 31, 31); color: rgb(204, 204, 204); font-family: Consolas, &amp;quot;Courier New&amp;quot;, monospace; font-size: 14px;&quot;&gt;(&lt;/span&gt;&lt;span style=&quot;font-family: Consolas, &amp;quot;Courier New&amp;quot;, monospace; font-size: 14px; color: rgb(156, 220, 254);&quot;&gt;price&lt;/span&gt;&lt;span style=&quot;background-color: rgb(31, 31, 31); color: rgb(204, 204, 204); font-family: Consolas, &amp;quot;Courier New&amp;quot;, monospace; font-size: 14px;&quot;&gt;)&lt;/span&gt;" style="text;strokeColor=none;fillColor=none;align=left;verticalAlign=top;spacingLeft=4;spacingRight=4;overflow=hidden;rotatable=0;points=[[0,0.5],[1,0.5]];portConstraint=eastwest;whiteSpace=wrap;html=1;" vertex="1" parent="U32x_HRXyt1qe6SWbt8D-65">
          <mxGeometry y="26" width="200" height="64" as="geometry" />
        </mxCell>
        <mxCell id="U32x_HRXyt1qe6SWbt8D-69" value="LoginPage" style="swimlane;fontStyle=0;childLayout=stackLayout;horizontal=1;startSize=26;fillColor=none;horizontalStack=0;resizeParent=1;resizeParentMax=0;resizeLast=0;collapsible=1;marginBottom=0;whiteSpace=wrap;html=1;" vertex="1" parent="1">
          <mxGeometry x="920" y="-1750" width="160" height="52" as="geometry" />
        </mxCell>
        <mxCell id="U32x_HRXyt1qe6SWbt8D-70" value="+&amp;nbsp;async&lt;span style=&quot;background-color: rgb(31, 31, 31); color: rgb(204, 204, 204); font-family: Consolas, &amp;quot;Courier New&amp;quot;, monospace; font-size: 14px;&quot;&gt; &lt;/span&gt;&lt;span style=&quot;font-family: Consolas, &amp;quot;Courier New&amp;quot;, monospace; font-size: 14px; color: rgb(220, 220, 170);&quot;&gt;handleLogin&lt;/span&gt;&lt;span style=&quot;background-color: rgb(31, 31, 31); color: rgb(204, 204, 204); font-family: Consolas, &amp;quot;Courier New&amp;quot;, monospace; font-size: 14px;&quot;&gt;()&lt;/span&gt;" style="text;strokeColor=none;fillColor=none;align=left;verticalAlign=top;spacingLeft=4;spacingRight=4;overflow=hidden;rotatable=0;points=[[0,0.5],[1,0.5]];portConstraint=eastwest;whiteSpace=wrap;html=1;" vertex="1" parent="U32x_HRXyt1qe6SWbt8D-69">
          <mxGeometry y="26" width="160" height="26" as="geometry" />
        </mxCell>
        <mxCell id="U32x_HRXyt1qe6SWbt8D-73" value="LogoutPage" style="swimlane;fontStyle=0;childLayout=stackLayout;horizontal=1;startSize=26;fillColor=none;horizontalStack=0;resizeParent=1;resizeParentMax=0;resizeLast=0;collapsible=1;marginBottom=0;whiteSpace=wrap;html=1;" vertex="1" parent="1">
          <mxGeometry x="910" y="-1395" width="160" height="100" as="geometry" />
        </mxCell>
        <mxCell id="U32x_HRXyt1qe6SWbt8D-74" value="+&amp;nbsp;checkLoginStatus()&lt;br&gt;+&amp;nbsp;&lt;span style=&quot;font-family: Consolas, &amp;quot;Courier New&amp;quot;, monospace; font-size: 14px; color: rgb(220, 220, 170);&quot;&gt;logout&lt;/span&gt;()&lt;br&gt;+&amp;nbsp;&lt;span style=&quot;font-family: Consolas, &amp;quot;Courier New&amp;quot;, monospace; font-size: 14px; color: rgb(220, 220, 170);&quot;&gt;login&lt;/span&gt;()&lt;br&gt;+&amp;nbsp;&lt;span style=&quot;font-family: Consolas, &amp;quot;Courier New&amp;quot;, monospace; font-size: 14px; color: rgb(220, 220, 170);&quot;&gt;isLoggedIn&lt;/span&gt;&lt;span style=&quot;background-color: rgb(31, 31, 31); color: rgb(204, 204, 204); font-family: Consolas, &amp;quot;Courier New&amp;quot;, monospace; font-size: 14px;&quot;&gt;(&lt;/span&gt;&lt;span style=&quot;font-family: Consolas, &amp;quot;Courier New&amp;quot;, monospace; font-size: 14px; color: rgb(156, 220, 254);&quot;&gt;newVal&lt;/span&gt;&lt;span style=&quot;background-color: rgb(31, 31, 31); color: rgb(204, 204, 204); font-family: Consolas, &amp;quot;Courier New&amp;quot;, monospace; font-size: 14px;&quot;&gt;)&lt;/span&gt;" style="text;strokeColor=none;fillColor=none;align=left;verticalAlign=top;spacingLeft=4;spacingRight=4;overflow=hidden;rotatable=0;points=[[0,0.5],[1,0.5]];portConstraint=eastwest;whiteSpace=wrap;html=1;" vertex="1" parent="U32x_HRXyt1qe6SWbt8D-73">
          <mxGeometry y="26" width="160" height="74" as="geometry" />
        </mxCell>
        <mxCell id="U32x_HRXyt1qe6SWbt8D-77" value="ProductDetail" style="swimlane;fontStyle=0;childLayout=stackLayout;horizontal=1;startSize=26;fillColor=none;horizontalStack=0;resizeParent=1;resizeParentMax=0;resizeLast=0;collapsible=1;marginBottom=0;whiteSpace=wrap;html=1;" vertex="1" parent="1">
          <mxGeometry x="340" y="-1440" width="240" height="130" as="geometry" />
        </mxCell>
        <mxCell id="U32x_HRXyt1qe6SWbt8D-78" value="+&amp;nbsp;fetchProduct()&lt;br&gt;+&amp;nbsp;&lt;span style=&quot;font-family: Consolas, &amp;quot;Courier New&amp;quot;, monospace; font-size: 14px; color: rgb(220, 220, 170);&quot;&gt;getBubbleTeas&lt;/span&gt;()&lt;br&gt;+&amp;nbsp;&lt;span style=&quot;font-family: Consolas, &amp;quot;Courier New&amp;quot;, monospace; font-size: 14px; color: rgb(220, 220, 170);&quot;&gt;formatPrice&lt;/span&gt;()&lt;br&gt;+&amp;nbsp;&lt;span style=&quot;font-family: Consolas, &amp;quot;Courier New&amp;quot;, monospace; font-size: 14px; color: rgb(220, 220, 170);&quot;&gt;addToCartAndRedirect&lt;/span&gt;&lt;span style=&quot;background-color: rgb(31, 31, 31); color: rgb(204, 204, 204); font-family: Consolas, &amp;quot;Courier New&amp;quot;, monospace; font-size: 14px;&quot;&gt;(&lt;/span&gt;&lt;span style=&quot;font-family: Consolas, &amp;quot;Courier New&amp;quot;, monospace; font-size: 14px; color: rgb(156, 220, 254);&quot;&gt;product&lt;/span&gt;)&lt;br&gt;+&amp;nbsp;&lt;span style=&quot;font-family: Consolas, &amp;quot;Courier New&amp;quot;, monospace; font-size: 14px; color: rgb(220, 220, 170);&quot;&gt;goBackToProducts&lt;/span&gt;()&lt;br&gt;+&amp;nbsp;&lt;span style=&quot;font-family: Consolas, &amp;quot;Courier New&amp;quot;, monospace; font-size: 14px; color: rgb(220, 220, 170);&quot;&gt;mounted&lt;/span&gt;&lt;span style=&quot;background-color: rgb(31, 31, 31); color: rgb(204, 204, 204); font-family: Consolas, &amp;quot;Courier New&amp;quot;, monospace; font-size: 14px;&quot;&gt;()&lt;/span&gt;" style="text;strokeColor=none;fillColor=none;align=left;verticalAlign=top;spacingLeft=4;spacingRight=4;overflow=hidden;rotatable=0;points=[[0,0.5],[1,0.5]];portConstraint=eastwest;whiteSpace=wrap;html=1;" vertex="1" parent="U32x_HRXyt1qe6SWbt8D-77">
          <mxGeometry y="26" width="240" height="104" as="geometry" />
        </mxCell>
        <mxCell id="U32x_HRXyt1qe6SWbt8D-86" value="" style="endArrow=classic;html=1;rounded=0;exitX=1;exitY=0;exitDx=0;exitDy=0;entryX=0.367;entryY=1.143;entryDx=0;entryDy=0;entryPerimeter=0;" edge="1" parent="1" source="U32x_HRXyt1qe6SWbt8D-65" target="U32x_HRXyt1qe6SWbt8D-70">
          <mxGeometry width="50" height="50" relative="1" as="geometry">
            <mxPoint x="620" y="-1610" as="sourcePoint" />
            <mxPoint x="670" y="-1660" as="targetPoint" />
          </mxGeometry>
        </mxCell>
        <mxCell id="U32x_HRXyt1qe6SWbt8D-87" value="" style="endArrow=classic;html=1;rounded=0;entryX=0.613;entryY=1.013;entryDx=0;entryDy=0;entryPerimeter=0;exitX=0.007;exitY=0.372;exitDx=0;exitDy=0;exitPerimeter=0;" edge="1" parent="1" source="U32x_HRXyt1qe6SWbt8D-66" target="U32x_HRXyt1qe6SWbt8D-64">
          <mxGeometry width="50" height="50" relative="1" as="geometry">
            <mxPoint x="330" y="-1530" as="sourcePoint" />
            <mxPoint x="380" y="-1580" as="targetPoint" />
          </mxGeometry>
        </mxCell>
        <mxCell id="U32x_HRXyt1qe6SWbt8D-88" value="" style="endArrow=classic;html=1;rounded=0;exitX=0.002;exitY=0.946;exitDx=0;exitDy=0;exitPerimeter=0;entryX=0.66;entryY=0.016;entryDx=0;entryDy=0;entryPerimeter=0;" edge="1" parent="1" source="U32x_HRXyt1qe6SWbt8D-66" target="U32x_HRXyt1qe6SWbt8D-77">
          <mxGeometry width="50" height="50" relative="1" as="geometry">
            <mxPoint x="280" y="-1480" as="sourcePoint" />
            <mxPoint x="330" y="-1530" as="targetPoint" />
          </mxGeometry>
        </mxCell>
        <mxCell id="U32x_HRXyt1qe6SWbt8D-89" value="" style="endArrow=classic;html=1;rounded=0;entryX=0;entryY=0;entryDx=0;entryDy=0;exitX=0.881;exitY=1.058;exitDx=0;exitDy=0;exitPerimeter=0;" edge="1" parent="1" source="U32x_HRXyt1qe6SWbt8D-66" target="U32x_HRXyt1qe6SWbt8D-73">
          <mxGeometry width="50" height="50" relative="1" as="geometry">
            <mxPoint x="590" y="-1480" as="sourcePoint" />
            <mxPoint x="690" y="-1490" as="targetPoint" />
          </mxGeometry>
        </mxCell>
        <mxCell id="U32x_HRXyt1qe6SWbt8D-90" value="" style="endArrow=classic;html=1;rounded=0;exitX=1.021;exitY=-0.031;exitDx=0;exitDy=0;exitPerimeter=0;entryX=-0.037;entryY=0.022;entryDx=0;entryDy=0;entryPerimeter=0;" edge="1" parent="1" source="U32x_HRXyt1qe6SWbt8D-66" target="U32x_HRXyt1qe6SWbt8D-40">
          <mxGeometry width="50" height="50" relative="1" as="geometry">
            <mxPoint x="620" y="-1540" as="sourcePoint" />
            <mxPoint x="670" y="-1590" as="targetPoint" />
          </mxGeometry>
        </mxCell>
        <mxCell id="U32x_HRXyt1qe6SWbt8D-91" value="" style="endArrow=classic;html=1;rounded=0;exitX=1;exitY=0.5;exitDx=0;exitDy=0;entryX=0;entryY=0.5;entryDx=0;entryDy=0;" edge="1" parent="1" source="U32x_HRXyt1qe6SWbt8D-66" target="U32x_HRXyt1qe6SWbt8D-44">
          <mxGeometry width="50" height="50" relative="1" as="geometry">
            <mxPoint x="630" y="-1490" as="sourcePoint" />
            <mxPoint x="680" y="-1540" as="targetPoint" />
          </mxGeometry>
        </mxCell>
        <mxCell id="U32x_HRXyt1qe6SWbt8D-92" value="" style="endArrow=classic;html=1;rounded=0;entryX=0.61;entryY=1.04;entryDx=0;entryDy=0;entryPerimeter=0;exitX=0.437;exitY=0.019;exitDx=0;exitDy=0;exitPerimeter=0;" edge="1" parent="1" source="U32x_HRXyt1qe6SWbt8D-9" target="U32x_HRXyt1qe6SWbt8D-66">
          <mxGeometry width="50" height="50" relative="1" as="geometry">
            <mxPoint x="500" y="-1290" as="sourcePoint" />
            <mxPoint x="550" y="-1340" as="targetPoint" />
          </mxGeometry>
        </mxCell>
        <mxCell id="U32x_HRXyt1qe6SWbt8D-93" value="" style="endArrow=classic;html=1;rounded=0;exitX=0;exitY=0.5;exitDx=0;exitDy=0;" edge="1" parent="1" source="U32x_HRXyt1qe6SWbt8D-11" target="U32x_HRXyt1qe6SWbt8D-51">
          <mxGeometry width="50" height="50" relative="1" as="geometry">
            <mxPoint x="310" y="-1160" as="sourcePoint" />
            <mxPoint x="360" y="-1210" as="targetPoint" />
          </mxGeometry>
        </mxCell>
        <mxCell id="U32x_HRXyt1qe6SWbt8D-94" value="" style="endArrow=classic;html=1;rounded=0;exitX=1;exitY=0.5;exitDx=0;exitDy=0;entryX=0;entryY=0.5;entryDx=0;entryDy=0;" edge="1" parent="1" source="U32x_HRXyt1qe6SWbt8D-11" target="U32x_HRXyt1qe6SWbt8D-6">
          <mxGeometry width="50" height="50" relative="1" as="geometry">
            <mxPoint x="630" y="-1140" as="sourcePoint" />
            <mxPoint x="690" y="-1190" as="targetPoint" />
          </mxGeometry>
        </mxCell>
        <mxCell id="U32x_HRXyt1qe6SWbt8D-95" value="" style="endArrow=classic;html=1;rounded=0;entryX=1;entryY=0.5;entryDx=0;entryDy=0;exitX=-0.008;exitY=0.15;exitDx=0;exitDy=0;exitPerimeter=0;" edge="1" parent="1" source="U32x_HRXyt1qe6SWbt8D-78" target="U32x_HRXyt1qe6SWbt8D-48">
          <mxGeometry width="50" height="50" relative="1" as="geometry">
            <mxPoint x="90" y="-1350" as="sourcePoint" />
            <mxPoint x="140" y="-1400" as="targetPoint" />
          </mxGeometry>
        </mxCell>
      </root>
    </mxGraphModel>
  </diagram>
</mxfile>
